# xmcd
#
# Track frame offsets: 
#        150
#        13740
#        27496
#        42852
#        55868
#        70477
#        82262
#        99686
#        115353
#        128819
#        141275
#        158424
#        174723
#
# Disc length: 2592 seconds
#
# Revision: 0
# Processed by: cddbd v1.5.2PL0 Copyright (c) Steve Scherf et al.
# Submitted via: ExactAudioCopyFreeDBPlugin 1.0
#
DISCID=b80a1e0d
DTITLE=Julie Black - Follow the Muse
DYEAR=2014
DGENRE=Blues
TTITLE0=Shout It
TTITLE1=Evolution
TTITLE2=Straight Shootin' Mama
TTITLE3=Greatest Love
TTITLE4=She Used To Be Mine
TTITLE5=It's Ok
TTITLE6=Follow the Muse
TTITLE7=Ever Since
TTITLE8=Truth Is
TTITLE9=Love Grande
TTITLE10=Nothing Changed
TTITLE11=Majesty of Hope
TTITLE12=The Call
EXTD=
EXTT0=
EXTT1=
EXTT2=
EXTT3=
EXTT4=
EXTT5=
EXTT6=
EXTT7=
EXTT8=
EXTT9=
EXTT10=
EXTT11=
EXTT12=
PLAYORDER=
